<?xml version="1.0" standalone="no"?>
<!DOCTYPE svg PUBLIC "-//W3C//DTD SVG 20010904//EN"
 "http://www.w3.org/TR/2001/REC-SVG-20010904/DTD/svg10.dtd">
<svg version="1.0" xmlns="http://www.w3.org/2000/svg"
 width="225.000000pt" height="225.000000pt" viewBox="0 0 225.000000 225.000000"
 preserveAspectRatio="xMidYMid meet">
<metadata>
Created by potrace 1.14, written by Peter Selinger 2001-2017
</metadata>
<g transform="translate(0.000000,225.000000) scale(0.100000,-0.100000)"
fill="#000000" stroke="none">
<path d="M0 1125 l0 -1125 1125 0 1125 0 0 1125 0 1125 -1125 0 -1125 0 0
-1125z m1398 364 c99 -43 193 -141 208 -218 6 -30 8 -31 62 -31 102 0 188 -64
211 -157 27 -106 -37 -224 -137 -253 -24 -7 -145 -10 -342 -8 l-305 3 0 319 0
320 32 19 c68 39 188 42 271 6z m-363 -247 c9 -171 0 -383 -16 -414 -21 -40
-37 4 -44 130 -8 123 5 429 20 452 20 32 33 -24 40 -168z m-222 58 c13 -86 5
-466 -10 -482 -10 -9 -16 -9 -25 0 -15 15 -23 287 -13 438 6 90 9 105 23 102
12 -2 19 -20 25 -58z m110 -26 c13 -103 3 -430 -13 -449 -23 -28 -32 0 -41
129 -10 123 0 361 16 385 15 26 30 1 38 -65z m-219 -1 c13 -95 16 -227 7 -332
-11 -115 -21 -145 -42 -124 -14 14 -24 292 -15 406 7 75 10 87 26 87 13 0 20
-10 24 -37z m-217 -90 c10 -36 10 -289 0 -325 -11 -41 -35 -35 -43 10 -10 50
-11 280 -1 315 4 15 14 27 22 27 8 0 18 -12 22 -27z m105 -5 c17 -30 16 -301
-1 -343 -12 -28 -13 -29 -26 -12 -17 24 -29 170 -22 267 9 111 22 135 49 88z
m-212 -54 c13 -33 13 -149 -1 -196 -12 -47 -35 -49 -45 -6 -9 43 -9 177 0 206
10 30 34 28 46 -4z"/>
</g>
</svg>
